<mxfile host="app.diagrams.net" modified="2021-11-17T19:24:27.646Z" agent="5.0 (Windows NT 10.0; Win64; x64) AppleWebKit/537.36 (KHTML, like Gecko) Chrome/94.0.4606.85 YaBrowser/21.11.0.1996 Yowser/2.5 Safari/537.36" etag="xRXwXzHlIBXECWxFEzHQ" version="15.8.1" type="github">
  <diagram id="prtHgNgQTEPvFCAcTncT" name="Page-1">
    <mxGraphModel dx="1185" dy="658" grid="1" gridSize="10" guides="1" tooltips="1" connect="1" arrows="1" fold="1" page="1" pageScale="1" pageWidth="827" pageHeight="1169" math="0" shadow="0">
      <root>
        <mxCell id="0" />
        <mxCell id="1" parent="0" />
        <mxCell id="eoCP1FfVIZmMkGXt8KC9-1" value="Заказчик" style="shape=umlActor;verticalLabelPosition=bottom;verticalAlign=top;html=1;outlineConnect=0;fillColor=#f8cecc;strokeColor=#b85450;" vertex="1" parent="1">
          <mxGeometry x="40" y="40" width="50" height="90" as="geometry" />
        </mxCell>
        <mxCell id="eoCP1FfVIZmMkGXt8KC9-8" value="" style="edgeStyle=orthogonalEdgeStyle;rounded=0;orthogonalLoop=1;jettySize=auto;html=1;opacity=40;" edge="1" parent="1" source="eoCP1FfVIZmMkGXt8KC9-2" target="eoCP1FfVIZmMkGXt8KC9-3">
          <mxGeometry relative="1" as="geometry" />
        </mxCell>
        <mxCell id="eoCP1FfVIZmMkGXt8KC9-2" value="Общаться с прорабом" style="rounded=0;whiteSpace=wrap;html=1;fillColor=#f8cecc;strokeColor=#b85450;" vertex="1" parent="1">
          <mxGeometry x="90" y="170" width="90" height="50" as="geometry" />
        </mxCell>
        <mxCell id="eoCP1FfVIZmMkGXt8KC9-9" value="" style="edgeStyle=orthogonalEdgeStyle;rounded=0;orthogonalLoop=1;jettySize=auto;html=1;opacity=40;" edge="1" parent="1" source="eoCP1FfVIZmMkGXt8KC9-3" target="eoCP1FfVIZmMkGXt8KC9-5">
          <mxGeometry relative="1" as="geometry" />
        </mxCell>
        <mxCell id="eoCP1FfVIZmMkGXt8KC9-3" value="Выбрать из предложенных проектов" style="rounded=0;whiteSpace=wrap;html=1;fillColor=#f8cecc;strokeColor=#b85450;" vertex="1" parent="1">
          <mxGeometry x="200" y="170" width="100" height="50" as="geometry" />
        </mxCell>
        <mxCell id="eoCP1FfVIZmMkGXt8KC9-14" value="" style="edgeStyle=orthogonalEdgeStyle;rounded=0;orthogonalLoop=1;jettySize=auto;html=1;opacity=40;" edge="1" parent="1" source="eoCP1FfVIZmMkGXt8KC9-4" target="eoCP1FfVIZmMkGXt8KC9-13">
          <mxGeometry relative="1" as="geometry" />
        </mxCell>
        <mxCell id="eoCP1FfVIZmMkGXt8KC9-4" value="Приобрести проект" style="rounded=0;whiteSpace=wrap;html=1;fillColor=#f8cecc;strokeColor=#b85450;" vertex="1" parent="1">
          <mxGeometry x="440" y="170" width="100" height="50" as="geometry" />
        </mxCell>
        <mxCell id="eoCP1FfVIZmMkGXt8KC9-10" value="" style="edgeStyle=orthogonalEdgeStyle;rounded=0;orthogonalLoop=1;jettySize=auto;html=1;opacity=40;" edge="1" parent="1" source="eoCP1FfVIZmMkGXt8KC9-5" target="eoCP1FfVIZmMkGXt8KC9-4">
          <mxGeometry relative="1" as="geometry" />
        </mxCell>
        <mxCell id="eoCP1FfVIZmMkGXt8KC9-11" style="edgeStyle=orthogonalEdgeStyle;rounded=0;orthogonalLoop=1;jettySize=auto;html=1;entryX=0.5;entryY=0;entryDx=0;entryDy=0;opacity=40;exitX=0.5;exitY=0;exitDx=0;exitDy=0;" edge="1" parent="1" source="eoCP1FfVIZmMkGXt8KC9-5" target="eoCP1FfVIZmMkGXt8KC9-3">
          <mxGeometry relative="1" as="geometry">
            <Array as="points">
              <mxPoint x="371" y="100" />
              <mxPoint x="250" y="100" />
            </Array>
          </mxGeometry>
        </mxCell>
        <mxCell id="eoCP1FfVIZmMkGXt8KC9-5" value="" style="rhombus;whiteSpace=wrap;html=1;fillColor=#f8cecc;strokeColor=#b85450;" vertex="1" parent="1">
          <mxGeometry x="327.5" y="165" width="86" height="60" as="geometry" />
        </mxCell>
        <mxCell id="eoCP1FfVIZmMkGXt8KC9-6" value="" style="endArrow=none;html=1;rounded=0;exitX=1;exitY=1;exitDx=0;exitDy=0;exitPerimeter=0;entryX=0;entryY=0;entryDx=0;entryDy=0;fillColor=#f8cecc;strokeColor=#b85450;opacity=40;" edge="1" parent="1" source="eoCP1FfVIZmMkGXt8KC9-1" target="eoCP1FfVIZmMkGXt8KC9-2">
          <mxGeometry width="50" height="50" relative="1" as="geometry">
            <mxPoint x="410" y="260" as="sourcePoint" />
            <mxPoint x="460" y="210" as="targetPoint" />
          </mxGeometry>
        </mxCell>
        <mxCell id="eoCP1FfVIZmMkGXt8KC9-18" value="" style="edgeStyle=orthogonalEdgeStyle;rounded=0;orthogonalLoop=1;jettySize=auto;html=1;opacity=40;" edge="1" parent="1" source="eoCP1FfVIZmMkGXt8KC9-13" target="eoCP1FfVIZmMkGXt8KC9-17">
          <mxGeometry relative="1" as="geometry" />
        </mxCell>
        <mxCell id="eoCP1FfVIZmMkGXt8KC9-13" value="Оплатить работу" style="rounded=0;whiteSpace=wrap;html=1;fillColor=#f8cecc;strokeColor=#b85450;" vertex="1" parent="1">
          <mxGeometry x="570" y="170" width="100" height="50" as="geometry" />
        </mxCell>
        <mxCell id="eoCP1FfVIZmMkGXt8KC9-16" value="" style="edgeStyle=orthogonalEdgeStyle;rounded=0;orthogonalLoop=1;jettySize=auto;html=1;opacity=40;" edge="1" parent="1" source="eoCP1FfVIZmMkGXt8KC9-15" target="eoCP1FfVIZmMkGXt8KC9-3">
          <mxGeometry relative="1" as="geometry" />
        </mxCell>
        <mxCell id="eoCP1FfVIZmMkGXt8KC9-15" value="Проекты" style="shape=cylinder3;whiteSpace=wrap;html=1;boundedLbl=1;backgroundOutline=1;size=15;" vertex="1" parent="1">
          <mxGeometry x="215" y="245" width="70" height="50" as="geometry" />
        </mxCell>
        <mxCell id="eoCP1FfVIZmMkGXt8KC9-17" value="Денежные средства" style="shape=cylinder3;whiteSpace=wrap;html=1;boundedLbl=1;backgroundOutline=1;size=15;" vertex="1" parent="1">
          <mxGeometry x="577.5" y="245" width="85" height="60" as="geometry" />
        </mxCell>
        <mxCell id="eoCP1FfVIZmMkGXt8KC9-31" value="Дизайнер" style="shape=umlActor;verticalLabelPosition=bottom;verticalAlign=top;html=1;outlineConnect=0;fillColor=#f5f5f5;strokeColor=#666666;fontColor=#333333;" vertex="1" parent="1">
          <mxGeometry x="20" y="310" width="45" height="90" as="geometry" />
        </mxCell>
        <mxCell id="eoCP1FfVIZmMkGXt8KC9-32" value="" style="edgeStyle=orthogonalEdgeStyle;rounded=0;orthogonalLoop=1;jettySize=auto;html=1;opacity=50;" edge="1" parent="1" source="eoCP1FfVIZmMkGXt8KC9-33" target="eoCP1FfVIZmMkGXt8KC9-35">
          <mxGeometry relative="1" as="geometry" />
        </mxCell>
        <mxCell id="eoCP1FfVIZmMkGXt8KC9-33" value="Разработать дизайн-проект" style="rounded=0;whiteSpace=wrap;html=1;fillColor=#f5f5f5;strokeColor=#666666;fontColor=#333333;" vertex="1" parent="1">
          <mxGeometry x="90" y="340" width="90" height="60" as="geometry" />
        </mxCell>
        <mxCell id="eoCP1FfVIZmMkGXt8KC9-34" value="" style="endArrow=none;html=1;rounded=0;edgeStyle=orthogonalEdgeStyle;entryX=0;entryY=0.5;entryDx=0;entryDy=0;fillColor=#f5f5f5;strokeColor=#666666;opacity=50;" edge="1" parent="1" target="eoCP1FfVIZmMkGXt8KC9-33">
          <mxGeometry width="50" height="50" relative="1" as="geometry">
            <mxPoint x="65" y="370" as="sourcePoint" />
            <mxPoint x="415" y="270" as="targetPoint" />
            <Array as="points">
              <mxPoint x="43" y="370" />
              <mxPoint x="43" y="370" />
            </Array>
          </mxGeometry>
        </mxCell>
        <mxCell id="eoCP1FfVIZmMkGXt8KC9-36" value="" style="edgeStyle=orthogonalEdgeStyle;rounded=0;orthogonalLoop=1;jettySize=auto;html=1;opacity=40;" edge="1" parent="1" source="eoCP1FfVIZmMkGXt8KC9-35" target="eoCP1FfVIZmMkGXt8KC9-15">
          <mxGeometry relative="1" as="geometry" />
        </mxCell>
        <mxCell id="eoCP1FfVIZmMkGXt8KC9-35" value="Передать проект прорабу" style="rounded=0;whiteSpace=wrap;html=1;fillColor=#f5f5f5;strokeColor=#666666;fontColor=#333333;" vertex="1" parent="1">
          <mxGeometry x="205" y="340" width="90" height="60" as="geometry" />
        </mxCell>
      </root>
    </mxGraphModel>
  </diagram>
</mxfile>
